<?xml version="1.0" encoding="UTF-8" standalone="no"?><!DOCTYPE svg PUBLIC "-//W3C//DTD SVG 1.1//EN" "http://www.w3.org/Graphics/SVG/1.1/DTD/svg11.dtd"><svg width="100%" height="100%" viewBox="0 0 305 111" version="1.1" xmlns="http://www.w3.org/2000/svg" xmlns:xlink="http://www.w3.org/1999/xlink" xml:space="preserve" xmlns:serif="http://www.serif.com/" style="fill-rule:evenodd;clip-rule:evenodd;stroke-linejoin:round;stroke-miterlimit:2;"><g id="Layer-1" serif:id="Layer 1"><g id="text3336"><path id="path3365" d="M52.414,22.309c-2.198,1.233 -5.362,2.922 -9.491,5.067c-2.198,-1.019 -5.523,-2.708 -9.974,-5.067c2.145,-1.234 5.309,-2.95 9.492,-5.148c2.359,1.233 5.683,2.949 9.973,5.148Zm24.854,49.305c-4.987,3.163 -12.44,7.909 -22.36,14.236l-0,-12.788c-0.376,-0.322 -0.724,-0.322 -1.046,-0l-0,13.673c-2.788,1.555 -6.649,3.861 -11.582,6.917c-0,-2.681 -0.108,-6.944 -0.322,-12.789c-0.161,-5.791 -0.241,-10.161 -0.241,-13.11c-3.271,-1.823 -6.623,-3.888 -10.054,-6.193c-0.215,-0.376 -0.403,-0.563 -0.563,-0.563c-0.108,0.053 -0.161,0.241 -0.161,0.563l-0,11.823c2.252,1.448 5.657,3.727 10.215,6.837l-0,12.95l-10.617,-5.952c-0,-2.896 -0.108,-7.266 -0.322,-13.111c-0.161,-5.898 -0.241,-10.295 -0.241,-13.191c-2.199,-1.448 -5.55,-3.673 -10.055,-6.676c-0.214,-0.375 -0.375,-0.563 -0.482,-0.563c-0.107,0.054 -0.161,0.242 -0.161,0.563l-0,11.341c2.359,1.555 5.738,3.834 10.134,6.837l0,13.915c-2.412,-1.448 -5.952,-3.593 -10.617,-6.435l0,-14.558c-3.592,-1.555 -7.158,-3.351 -10.697,-5.389l-0,-11.582c2.145,1.179 5.282,2.815 9.41,4.906c0.215,-0.322 0.322,-0.536 0.322,-0.643c-3.217,-1.716 -6.461,-3.513 -9.732,-5.389l0.563,-13.433c1.716,1.073 4.987,3.003 9.813,5.792c0.214,-0.268 0.321,-0.483 0.321,-0.644c-2.091,-1.34 -5.174,-3.164 -9.249,-5.469c2.252,-1.18 5.737,-3.057 10.456,-5.631c2.252,1.502 5.63,3.459 10.134,5.872c0.268,-0.268 0.403,-0.456 0.403,-0.563c-2.092,-0.965 -5.202,-2.815 -9.331,-5.55c2.092,-1.019 5.416,-2.708 9.974,-5.067c2.198,1.18 5.523,2.842 9.974,4.987c-0,0.75 0.187,1.287 0.563,1.608c-2.038,0.912 -5.309,2.521 -9.813,4.826c1.18,0.644 2.869,1.582 5.067,2.815c2.199,1.234 3.861,2.172 4.987,2.816c0.59,-0.215 4.397,-2.092 11.421,-5.631c-2.574,-1.233 -6.3,-3.029 -11.18,-5.389c1.448,-0.589 5.094,-2.6 10.939,-6.032c2.52,1.019 6.167,2.708 10.939,5.067c-2.36,1.233 -5.764,3.057 -10.215,5.47c-0.107,0.16 -0,0.375 0.322,0.643c3.592,-1.501 7.292,-3.459 11.099,-5.872c5.362,2.682 9.357,4.505 11.985,5.47l-0,38.286Zm-59.52,7.4c-2.252,-1.287 -5.47,-3.084 -9.652,-5.389l-0,-12.548c2.252,1.18 5.469,2.842 9.652,4.987l-0,12.95Zm58.474,-33.219l0,-11.019c-3.539,2.198 -6.729,3.994 -9.571,5.389l-0,11.582c2.198,-1.341 5.389,-3.325 9.571,-5.952Zm0,12.145l0,-10.536c-2.252,1.34 -5.442,3.163 -9.571,5.469l-0,11.582c2.198,-1.34 5.389,-3.512 9.571,-6.515Zm-11.663,-18.178c-0.482,-0.214 -2.278,-1.233 -5.389,-3.056c-2.305,-1.34 -3.673,-2.011 -4.102,-2.011l-1.528,0c-1.501,0.858 -4.638,2.735 -9.41,5.631c1.984,1.179 3.941,2.359 5.871,3.539c2.36,1.394 3.754,2.091 4.183,2.091l1.447,-0c4.397,-2.52 7.373,-4.585 8.928,-6.194Zm0.966,12.87l-0,-11.502l-10.617,5.871l-0,12.065c2.413,-1.34 5.952,-3.485 10.617,-6.434Zm10.697,18.499l0,-11.502c-2.306,1.394 -5.496,3.378 -9.571,5.952l-0,11.985c1.984,-1.287 5.174,-3.432 9.571,-6.435Zm-10.697,-5.791l-0,-11.582c-2.574,1.501 -6.113,3.646 -10.617,6.434l-0,11.583c2.413,-1.502 5.952,-3.647 10.617,-6.435Zm-11.663,-18.66c-4.29,-2.145 -8.097,-4.183 -11.421,-6.113c-3.861,2.413 -7.695,4.45 -11.502,6.113c2.842,1.716 6.836,3.914 11.984,6.595c2.52,-1.609 6.167,-3.807 10.939,-6.595Zm-0.081,13.271l0,-12.065c-2.466,1.502 -6.139,3.646 -11.019,6.435l0,12.065c2.52,-1.502 6.194,-3.647 11.019,-6.435Zm-12.547,-19.625c-4.29,-2.413 -7.963,-4.29 -11.019,-5.631c-2.467,1.287 -5.952,3.164 -10.456,5.631c0.75,0.375 2.547,1.501 5.389,3.378c2.305,1.501 3.699,2.252 4.182,2.252l1.448,-0c2.359,-1.394 5.845,-3.271 10.456,-5.63Zm0.402,26.06l0,-12.548c-2.413,-1.34 -5.952,-3.324 -10.617,-5.952l0,12.548c2.359,1.287 5.898,3.271 10.617,5.952Zm12.145,6.193l0,-11.502c-2.573,1.501 -6.246,3.646 -11.019,6.435l0,11.984c4.504,-2.52 8.178,-4.826 11.019,-6.917Zm-23.888,-13.03l0,-12.548c-2.359,-1.287 -5.871,-3.244 -10.537,-5.871l0,11.984c2.36,1.341 5.872,3.486 10.537,6.435Z" style="fill:#fff;fill-rule:nonzero;"/><path id="path3367" d="M127.214,22.309c-2.091,0.965 -5.416,2.654 -9.974,5.067c-1.126,-0.483 -2.869,-1.314 -5.228,-2.494c-2.359,-1.233 -4.102,-2.091 -5.228,-2.573c2.145,-1.234 5.308,-2.95 9.491,-5.148c2.52,1.233 6.166,2.949 10.939,5.148Zm23.888,49.305c-6.917,4.665 -14.531,9.41 -22.843,14.236l0,-12.949c2.681,-1.502 6.676,-3.807 11.985,-6.918c-0,2.467 0.161,6.355 0.482,11.663c0.322,-0.214 3.459,-2.466 9.411,-6.756l-0.402,-11.341c-2.628,1.716 -6.274,3.807 -10.939,6.274c-6.22,3.324 -9.893,5.308 -11.019,5.952l-0,-11.1c2.842,-1.662 6.997,-4.129 12.467,-7.4c-0.161,4.129 -0,7.856 0.482,11.18c2.145,-1.34 5.282,-3.566 9.411,-6.676l-0.402,-10.456c-0.804,0.429 -2.494,1.528 -5.067,3.298c-2.092,1.448 -3.352,2.172 -3.781,2.172c-0.482,-0 -0.777,-0.081 -0.884,-0.242c-0.108,-0.214 -0.188,-0.322 -0.242,-0.322c-1.287,0.966 -5.121,3.405 -11.502,7.32l0,-13.513c2.842,-1.233 6.408,-3.217 10.698,-5.952c-2.252,-1.126 -5.63,-2.922 -10.135,-5.389l-1.287,0c-0.482,0 -1.876,0.697 -4.182,2.091c-1.984,1.18 -3.941,2.36 -5.872,3.54c2.253,1.34 5.658,3.163 10.215,5.469c-3.86,-1.126 -7.668,-2.869 -11.421,-5.228c-2.091,1.287 -5.925,3.324 -11.502,6.113c2.359,1.394 6.033,3.592 11.019,6.595c2.467,-1.287 6.247,-3.244 11.341,-5.871l0,13.995c-2.413,1.448 -5.978,3.566 -10.697,6.354l0.402,11.824c2.306,-1.448 5.737,-3.539 10.295,-6.274l0,13.432c-2.413,1.77 -5.925,3.914 -10.536,6.435c-0,-2.735 -0.188,-6.918 -0.563,-12.548c-0.322,-5.63 -0.483,-9.92 -0.483,-12.869c-3.217,-1.77 -6.569,-3.834 -10.054,-6.193c-0.161,-0.108 -0.402,-0 -0.724,0.321c0,2.521 -0.188,6.462 -0.563,11.824c-0.322,5.362 -0.483,9.491 -0.483,12.387c-2.841,-1.341 -6.354,-3.245 -10.536,-5.711l-0,-14.398c3.7,2.574 7.266,4.666 10.697,6.274l0,-11.341c-2.252,-1.448 -5.63,-3.673 -10.134,-6.676c-0.215,-0.375 -0.375,-0.563 -0.483,-0.563c-0.161,0 -0.241,0.188 -0.241,0.563l-0,11.18c-2.574,-1.501 -6.274,-3.646 -11.1,-6.434l0,-12.065c6.489,4.558 10.054,6.837 10.698,6.837c0.429,-0 0.724,-0.081 0.885,-0.242c0.16,-0.16 0.294,-0.241 0.402,-0.241c1.93,1.233 5.121,3.351 9.571,6.354l0.322,-12.386c-3.271,-2.092 -6.73,-4.156 -10.376,-6.194c-0.322,2.467 -0.482,6.355 -0.482,11.663c-2.842,-1.394 -6.515,-3.7 -11.02,-6.917l0,-11.502c4.826,2.413 11.904,6.301 21.234,11.663l1.287,-0c0.376,-0 1.663,-0.644 3.861,-1.931c2.949,-1.715 5.201,-2.949 6.756,-3.699c-2.198,-1.234 -5.549,-3.111 -10.054,-5.631c-4.397,1.877 -7.775,3.512 -10.134,4.907l-1.448,-0c-0.482,-0 -1.984,-0.778 -4.504,-2.333c-3.861,-2.413 -5.872,-3.673 -6.032,-3.78c2.037,-1.019 5.335,-2.708 9.893,-5.067l1.447,-0c0.429,-0 1.958,0.777 4.585,2.332c3.003,1.877 5.041,3.03 6.113,3.459c0.268,-0.108 0.402,-0.295 0.402,-0.563c-4.075,-2.413 -7.507,-4.424 -10.295,-6.033c2.091,-1.019 5.416,-2.708 9.973,-5.067c3.486,1.448 6.998,3.485 10.537,6.113c-2.252,1.179 -5.523,2.949 -9.813,5.308c1.18,0.644 2.869,1.582 5.068,2.815c2.198,1.234 3.86,2.172 4.986,2.816c0.59,-0.215 4.397,-2.092 11.422,-5.631c-2.413,-1.126 -5.979,-2.922 -10.698,-5.389c1.877,-0.804 5.496,-2.654 10.859,-5.549l1.528,-0c0.482,-0 3.405,1.286 8.767,3.86c4.451,2.145 8.928,4.317 13.432,6.515l0,38.206Zm-35.631,22.038c-2.413,-1.501 -5.952,-3.646 -10.617,-6.434l-0,-13.433c2.413,1.448 5.952,3.566 10.617,6.355l-0,13.512Zm-23.406,-14.075c-0.965,-0.644 -4.344,-2.628 -10.135,-5.952l0,-13.513c2.252,1.34 5.631,3.324 10.135,5.952l-0,13.513Zm57.589,-45.606c-1.126,-0.482 -2.949,-1.313 -5.469,-2.493c-2.52,-1.233 -4.37,-2.091 -5.55,-2.574c-0.965,0.483 -2.547,1.341 -4.745,2.574c-2.199,1.18 -3.781,2.011 -4.746,2.493c0.751,0.322 2.869,1.368 6.354,3.137c2.628,1.341 4.183,2.011 4.665,2.011c0.483,0 1.904,-0.697 4.263,-2.091c3.003,-1.823 4.746,-2.842 5.228,-3.057Zm0.403,11.824l-0,-11.019c-3.539,2.198 -6.73,3.994 -9.572,5.389l0,11.582c2.199,-1.341 5.389,-3.325 9.572,-5.952Zm-34.586,20.591l-0,-12.548c-2.413,-1.34 -5.952,-3.324 -10.617,-5.952l-0,12.548c2.359,1.287 5.898,3.271 10.617,5.952Z" style="fill:#fff;fill-rule:nonzero;"/><path id="path3369" d="M224.856,71.614c-4.933,3.271 -16.569,10.617 -34.907,22.038c-0,-2.091 -0.108,-6.166 -0.322,-12.226c-0.161,-6.005 -0.242,-10.563 -0.242,-13.673c-3.27,-1.823 -6.622,-3.888 -10.054,-6.193c-0.214,-0.376 -0.402,-0.563 -0.563,-0.563c-0.107,0.053 -0.16,0.241 -0.16,0.563l-0,11.823c2.252,1.448 5.657,3.727 10.214,6.837l0,12.95c-7.453,-4.397 -18.472,-10.912 -33.057,-19.545l-0,-39.332c2.413,1.448 6.113,3.754 11.099,6.917l0,11.663c2.467,1.501 5.952,3.753 10.457,6.756l0.402,-12.386c-1.77,-0.966 -5.202,-3.137 -10.296,-6.515c3.7,1.823 6.891,3.566 9.572,5.228l1.287,-0c0.482,-0 4.021,-1.877 10.617,-5.63c-2.199,-1.234 -5.55,-3.111 -10.054,-5.631c-2.199,0.965 -5.925,2.762 -11.18,5.389c-1.823,-0.804 -5.657,-3.003 -11.502,-6.595l33.942,-16.328l34.345,16.328c-2.681,1.662 -6.327,3.861 -10.939,6.595c-3.324,-1.34 -6.944,-3.137 -10.858,-5.389l-1.287,0c-0.483,0 -1.877,0.697 -4.183,2.091c-1.984,1.18 -3.941,2.36 -5.871,3.54c2.037,1.072 5.55,2.949 10.537,5.63l1.367,-0c0.429,-0 1.796,-0.697 4.102,-2.091c2.735,-1.609 4.531,-2.574 5.389,-2.896c-2.52,1.716 -5.925,3.807 -10.215,6.274l0.402,11.904c4.129,-2.467 7.588,-4.719 10.376,-6.757l-0,-11.18c2.574,-1.501 6.434,-3.646 11.582,-6.434l0,36.838Zm-13.593,-42.951c-1.823,-1.233 -5.308,-2.949 -10.456,-5.148c-2.306,1.073 -5.47,2.601 -9.491,4.585c5.952,3.432 9.303,5.147 10.054,5.147l1.448,0c3.271,-2.144 6.086,-3.673 8.445,-4.584Zm-11.663,-5.872c-0.965,-0.482 -2.547,-1.26 -4.745,-2.332c-2.199,-1.073 -3.78,-1.85 -4.746,-2.333c-0.965,0.483 -2.466,1.26 -4.504,2.333c-2.037,1.072 -3.539,1.85 -4.504,2.332c1.984,1.18 4.987,2.869 9.008,5.067c0.966,-0.482 2.547,-1.313 4.746,-2.493c2.198,-1.233 3.78,-2.091 4.745,-2.574Zm24.291,35.149l-0,-10.536c-2.252,1.34 -5.443,3.163 -9.571,5.469l-0,11.582c2.198,-1.34 5.388,-3.512 9.571,-6.515Zm-22.843,-23.969c-1.984,-0.965 -5.818,-2.654 -11.502,-5.067c-1.93,1.019 -5.255,2.708 -9.973,5.067c4.236,2.413 7.909,4.29 11.019,5.631c2.359,-1.395 5.845,-3.271 10.456,-5.631Zm22.843,37.16l-0,-11.502c-2.306,1.394 -5.496,3.378 -9.571,5.952l-0,11.985c1.984,-1.287 5.174,-3.432 9.571,-6.435Zm-34.988,-43.031c-2.413,-1.18 -5.764,-2.708 -10.054,-4.585c-2.145,1.18 -5.47,2.896 -9.974,5.148c2.52,1.179 5.684,2.869 9.491,5.067c1.126,-0.643 2.869,-1.582 5.228,-2.815c2.36,-1.233 4.129,-2.172 5.309,-2.815Zm12.628,18.58c-4.29,-2.145 -8.097,-4.183 -11.422,-6.113c-3.86,2.413 -7.694,4.45 -11.501,6.113c2.841,1.716 6.836,3.914 11.984,6.595c2.52,-1.609 6.166,-3.807 10.939,-6.595Zm-0.081,13.271l0,-12.065c-2.466,1.502 -6.139,3.646 -11.019,6.435l0,12.065c2.52,-1.502 6.193,-3.647 11.019,-6.435Zm11.743,18.017l0,-11.502c-2.627,1.555 -6.166,3.7 -10.617,6.435l0,11.984c2.413,-1.501 5.952,-3.807 10.617,-6.917Zm-23.888,-11.582l0,-12.548c-2.413,-1.34 -5.952,-3.324 -10.617,-5.952l-0,12.548c2.359,1.287 5.898,3.271 10.617,5.952Zm12.145,6.193l0,-11.502c-2.573,1.501 -6.247,3.646 -11.019,6.435l0,11.984c4.504,-2.52 8.177,-4.826 11.019,-6.917Zm-35.551,-7.641l0,-11.582c-2.037,-1.18 -5.067,-3.003 -9.089,-5.47l0,11.1c2.038,1.287 5.068,3.271 9.089,5.952Zm11.663,20.43l-0,-11.502c-2.359,-1.502 -5.872,-3.807 -10.537,-6.917l0,12.467c2.36,1.34 5.872,3.324 10.537,5.952Zm-11.663,-6.837l0,-12.467c-2.037,-1.341 -5.067,-3.325 -9.089,-5.952l0,13.03c2.306,1.18 5.336,2.976 9.089,5.389Z" style="fill:#fff;fill-rule:nonzero;"/><path id="path3371" d="M285.423,27.617c-2.091,1.126 -4.209,2.252 -6.354,3.378c-2.896,1.502 -4.585,2.252 -5.067,2.252c-0.805,0 -3.968,-1.367 -9.491,-4.102c2.305,-1.394 5.764,-3.431 10.375,-6.112l1.529,-0c0.482,-0 1.769,0.589 3.86,1.769c3.271,1.77 4.987,2.708 5.148,2.815Zm-10.697,-5.308c-0.698,0.321 -3.995,2.171 -9.894,5.549l-1.528,0c-0.59,0 -3.432,-2.037 -8.526,-6.112c0.965,-0.483 2.44,-1.234 4.424,-2.252c2.038,-1.073 3.566,-1.85 4.585,-2.333c2.52,1.233 6.166,2.949 10.939,5.148Zm-11.663,6.836c-2.467,1.287 -5.657,2.735 -9.572,4.344c-0.107,-0.107 -3.271,-2.226 -9.491,-6.354c2.521,-1.502 5.362,-3.03 8.526,-4.585l1.448,-0c0.536,-0 3.566,2.198 9.089,6.595Zm-0,10.698c-2.467,1.555 -6.301,3.914 -11.502,7.078c-1.555,-0.536 -4.88,-2.252 -9.974,-5.148c2.574,-1.34 6.542,-3.7 11.904,-7.078c2.467,0.858 5.657,2.574 9.572,5.148Zm-10.296,-5.872c-1.233,0.751 -5.04,3.11 -11.421,7.078c-2.627,-1.769 -6.461,-4.289 -11.502,-7.56c2.896,-1.394 7.212,-3.432 12.95,-6.113c2.198,1.394 5.523,3.593 9.973,6.595Zm45.847,37.643c-4.987,3.11 -12.413,7.855 -22.28,14.236c0.107,-3.432 0,-7.212 -0.322,-11.341c-0.697,-8.15 -1.072,-12.654 -1.126,-13.512c-2.252,1.447 -5.898,3.7 -10.938,6.756l0.402,11.824c2.788,-1.448 6.381,-3.727 10.778,-6.837l-0,13.995c-1.663,0.965 -5.443,3.298 -11.341,6.998c-12.333,-6.971 -23.781,-13.674 -34.345,-20.108l0,-13.031c2.199,1.448 5.523,3.54 9.974,6.274c0.482,0 0.724,-0.187 0.724,-0.563c-3.11,-1.716 -6.676,-3.995 -10.698,-6.837l0,-12.064c2.574,1.662 6.274,4.128 11.1,7.399l-0,10.778c4.021,2.842 7.641,5.068 10.858,6.676l0,-11.341c-2.306,-1.448 -5.711,-3.726 -10.215,-6.837l0,-11.019c2.145,1.126 5.282,2.735 9.411,4.826c3.914,-1.716 8.472,-4.316 13.673,-7.802c4.076,2.949 7.775,5.228 11.1,6.837c0.268,-0.322 0.402,-0.536 0.402,-0.644c-2.359,-1.447 -6.113,-3.753 -11.26,-6.917c0.965,-0.482 2.547,-1.34 4.745,-2.574c2.199,-1.233 3.78,-2.091 4.746,-2.573c1.447,0.643 3.753,1.716 6.917,3.217c3.163,1.501 5.469,2.574 6.917,3.217c-0.161,4.451 -0.027,8.178 0.402,11.18c1.984,-1.287 5.121,-3.378 9.411,-6.273l-0.402,-10.859c-1.663,1.019 -4.531,2.815 -8.607,5.389c-2.842,-1.394 -7.158,-3.432 -12.949,-6.113c2.252,-1.179 5.737,-3.029 10.456,-5.549l1.448,-0c0.482,-0 2.037,0.643 4.665,1.93c3.592,1.769 5.71,2.761 6.354,2.976l-0,38.286Zm-58.555,-18.419c-2.359,-1.287 -5.898,-3.593 -10.617,-6.918l0,-11.984c2.413,1.662 5.952,4.129 10.617,7.4l0,11.502Zm57.509,4.745l0,-10.536c-2.252,1.34 -5.442,3.163 -9.571,5.469l-0,11.582c2.198,-1.34 5.389,-3.512 9.571,-6.515Zm-10.697,-5.308l-0,-11.502l-10.617,5.871l-0,12.065c2.413,-1.34 5.952,-3.485 10.617,-6.434Zm10.697,18.499l0,-11.502c-2.305,1.394 -5.496,3.378 -9.571,5.952l-0,11.985c1.984,-1.287 5.174,-3.432 9.571,-6.435Zm-10.697,-5.791l-0,-11.582c-2.574,1.501 -6.113,3.646 -10.617,6.434l-0,11.583c2.413,-1.502 5.952,-3.647 10.617,-6.435Zm-11.743,-5.389l-0,-12.065c-2.467,1.502 -6.14,3.646 -11.02,6.435l0,12.065c2.521,-1.502 6.194,-3.647 11.02,-6.435Zm-12.146,6.435l0,-12.548c-2.413,-1.34 -5.952,-3.324 -10.617,-5.952l0,12.548c2.36,1.287 5.899,3.271 10.617,5.952Zm0,26.301l0,-11.502c-2.413,-1.501 -5.952,-3.646 -10.617,-6.434l0,11.501c2.521,1.555 6.06,3.7 10.617,6.435Zm-11.743,-7.319l0,-11.502c-2.359,-1.502 -5.871,-3.807 -10.536,-6.917l-0,12.467c2.359,1.34 5.871,3.324 10.536,5.952Z" style="fill:#fff;fill-rule:nonzero;"/></g></g></svg>