<?xml version="1.0" encoding="UTF-8"?>
<svg id="Layer_1" data-name="Layer 1" xmlns="http://www.w3.org/2000/svg" viewBox="0 0 370.87 69.98">
  <defs>
    <style>
      .cls-1 {
        isolation: isolate;
      }

      .cls-2 {
        fill: #fff;
      }
    </style>
  </defs>
  <path class="cls-2" d="M13.85,64.39c.01-.4.02-.8.02-1.21,0-.12,0-.23.01-.32,0-.05.02-.08.03-.1.01,0,.03-.04.11-.06.05-.02.16-.04.36-.04.12,0,.23-.02.33-.04.19-.06.3-.22.3-.43,0-.11-.05-.21-.14-.3l-.07-.08h-1.03c-.11,0-.22,0-.33.02-.3.03-.58.02-.79,0-.17-.02-.36-.04-.58-.04h-.12c-.07,0-.15,0-.23.02-.2.03-.32.18-.32.38,0,.29.18.4.26.43.1.04.21.06.33.07.09,0,.18.02.28.04.05,0,.09.03.11.04,0,0,.02.04.05.18.02.13.03.24.03.35v.72c0,.18-.01.36-.01.54v.98c-.01.12-.02.25-.04.39-.01.1-.04.13-.05.14-.04.03-.09.06-.15.07-.1.02-.2.04-.29.06-.11.02-.2.05-.29.08-.18.06-.28.2-.28.38,0,.19.1.35.27.41.1.04.2.05.3.05h.15c.11,0,.21,0,.3-.01.08-.01.16-.02.24-.03.06-.01.13-.02.2-.02.21-.02.53-.01.82.02.32.03.66.05.96.02.24-.02.39-.19.39-.44,0-.18-.12-.33-.31-.38-.09-.03-.18-.05-.3-.07-.1-.02-.21-.04-.31-.06-.07-.01-.11-.03-.14-.05-.02-.02-.04-.05-.06-.11-.02-.09-.03-.18-.04-.27v-.12l.03-1.2"/>
  <path class="cls-2" d="M20.71,62.63c-.2-.22-.44-.39-.72-.52-.46-.2-1.04-.25-1.55-.1-.19.06-.37.13-.53.21-.05.02-.09.05-.14.08.11-.31.25-.61.41-.89.28-.5.65-.94,1.1-1.33.1-.09.2-.17.31-.25.1-.07.21-.15.31-.2.03,0,.07-.04.14-.07.08-.03.15-.07.22-.11.08-.05.16-.09.22-.15.12-.1.18-.2.18-.32s-.05-.23-.14-.32c-.05-.05-.1-.09-.16-.12l-.07-.04h-.08c-.1.02-.22.05-.35.1-.11.04-.2.08-.28.12-.51.23-.98.53-1.42.89s-.83.76-1.16,1.21-.6.95-.78,1.48c-.19.53-.29,1.1-.29,1.69,0,.3.03.6.1.89s.16.57.3.83.31.5.53.7c.22.21.48.38.79.51.37.15.75.23,1.12.23.39,0,.74-.08,1.06-.24.31-.16.59-.37.81-.64s.39-.57.52-.9c.13-.34.18-.69.18-1.05,0-.34-.05-.65-.15-.94-.13-.28-.28-.54-.48-.75M19.21,66.17c-.14.1-.3.14-.51.14-.25,0-.44-.06-.59-.17-.16-.13-.29-.29-.39-.48-.1-.21-.17-.45-.22-.69-.04-.26-.06-.5-.06-.74,0-.12.01-.24.01-.35l.03-.27s.11-.12.18-.18c.09-.09.2-.17.31-.25.11-.07.23-.14.35-.19.32-.13.65-.07.88.06.15.09.27.2.37.35s.18.33.23.52c.05.2.08.42.08.63s-.02.41-.07.63c-.04.21-.12.4-.22.58-.11.17-.24.3-.38.41"/>
  <path class="cls-2" d="M25.71,65.15c-.2-.19-.45-.34-.74-.43-.09-.03-.18-.05-.27-.07.12-.12.24-.26.35-.4.15-.19.28-.38.38-.58.12-.22.18-.43.18-.63,0-.26-.05-.49-.15-.67-.1-.18-.22-.33-.38-.45s-.33-.2-.52-.25c-.37-.1-.76-.11-1.17.05-.19.08-.36.17-.52.28s-.3.24-.4.37c-.13.17-.19.33-.17.51.01.1.07.19.15.27.09.07.17.09.23.09.08,0,.16-.04.24-.11.15-.17.3-.31.42-.41.18-.15.55-.18.79.06.11.11.17.3.17.57,0,.14-.04.29-.13.45-.1.18-.23.34-.38.5s-.32.31-.5.44c-.18.13-.34.24-.48.31l-.21.1c-.25.12-.29.3-.29.4,0,.26.17.44.42.44.1,0,.19-.04.33-.14.07-.05.12-.08.18-.11.09-.05.17-.07.26-.07h.05c.15.01.29.03.42.06.14.03.26.08.37.16s.2.18.28.29c.08.12.14.26.18.4.04.15.07.3.07.44,0,.28-.06.54-.17.76-.12.23-.27.44-.47.62s-.45.35-.72.48c-.27.13-.57.25-.87.33-.1.01-.18.06-.23.14-.04.06-.07.13-.08.21-.01.1.01.19.07.27.04.05.13.15.31.15h0c.4-.01.81-.1,1.23-.27s.8-.41,1.15-.7c.35-.3.64-.64.87-1.03.23-.4.35-.84.35-1.28,0-.3-.05-.59-.16-.85-.09-.28-.24-.51-.44-.7"/>
  <path class="cls-2" d="M31.87,65.06c-.04-.09-.12-.21-.31-.28-.19-.08-.39-.02-.52.16l-.3.43c-.07.1-.15.21-.23.32s-.15.21-.22.29c0,0-.05.04-.24.08s-.4.06-.62.07c-.2.01-.38.01-.56,0,.06-.07.13-.14.21-.22.15-.15.3-.33.45-.52.16-.19.31-.39.46-.59.14-.2.27-.4.37-.58.11-.2.19-.38.23-.54.17-.61.11-1.12-.17-1.5-.29-.39-.73-.59-1.33-.59-.11,0-.22,0-.33,0-.12,0-.25.03-.38.07s-.27.11-.41.21c-.14.09-.28.22-.43.39-.03.03-.07.07-.11.14l-.11.15c-.05.07-.09.14-.12.2-.04.09-.06.16-.06.23,0,.13.06.25.17.33.12.08.26.1.39.03.09-.04.17-.13.23-.24.03-.05.07-.11.13-.18.05-.06.12-.11.21-.15.06-.03.18-.06.4-.06.4,0,.51.16.55.22.1.15.09.38-.02.68-.08.18-.18.39-.31.61-.13.23-.28.48-.45.72-.17.25-.35.5-.55.75s-.39.48-.57.69c-.11.11-.13.22-.13.29s0,.27.15.38c.07.06.16.09.26.1h.07c.14.01.24-.08.3-.15.16,0,.34,0,.54-.01.23,0,.43-.01.61-.01.43.01.8.04,1.08.09.3.05.56.08.75.09h.04c.16,0,.32-.11.34-.35.01-.07.02-.18.04-.33.02-.14.06-.31.13-.52.06-.2.17-.44.34-.7l.07-.12-.04-.09Z"/>
  <polygon class="cls-2" points="1 14.97 21.97 4.99 42.94 14.97 1 14.97"/>
  <rect class="cls-2" y="16.97" width="43.93" height="2"/>
  <rect class="cls-2" y="47.93" width="11.98" height="5.99"/>
  <rect class="cls-2" x="31.96" y="47.93" width="11.98" height="5.99"/>
  <rect class="cls-2" x="15.98" y="47.93" width="3.99" height="5.99"/>
  <rect class="cls-2" x="23.97" y="47.93" width="3.99" height="5.99"/>
  <polygon class="cls-2" points="3.5 20.96 4 45.93 0 45.93 .5 20.96 3.5 20.96"/>
  <polygon class="cls-2" points="11.49 20.96 11.99 45.93 7.99 45.93 8.49 20.96 11.49 20.96"/>
  <polygon class="cls-2" points="19.48 20.96 19.97 45.93 15.98 45.93 16.48 20.96 19.48 20.96"/>
  <polygon class="cls-2" points="27.46 20.96 27.96 45.93 23.97 45.93 24.46 20.96 27.46 20.96"/>
  <polygon class="cls-2" points="35.45 20.96 35.95 45.93 31.96 45.93 32.46 20.96 35.45 20.96"/>
  <polygon class="cls-2" points="43.44 20.96 43.94 45.93 39.95 45.93 40.44 20.96 43.44 20.96"/>
  <polygon class="cls-2" points="21.97 0 0 10.48 0 12.98 21.97 2.49 43.94 12.98 43.94 10.48 21.97 0"/>
  <g class="cls-1">
    <path class="cls-2" d="M77.62,54.04c-.55-.18-1.01-.48-1.36-.9-.35-.4-.6-.91-.73-1.53-.71.8-1.46,1.37-2.26,1.73-.8.38-1.68.56-2.66.56-1.37-.02-2.46-.25-3.25-.7-.8-.46-1.35-1.05-1.66-1.76-.31-.71-.46-1.45-.46-2.22.02-1.93.8-3.38,2.32-4.35,1.53-.97,3.64-1.46,6.34-1.46h.93c.29.02.48.03.56.03v-1.56c0-.8-.04-1.44-.13-1.93s-.27-.87-.53-1.16c-.29-.31-.63-.55-1.03-.73s-.89-.27-1.46-.27c-1.02.02-2.01.23-2.99.63-.97.4-1.79.89-2.46,1.46l-.93-1.33c1.02-.71,2.08-1.26,3.19-1.66s2.26-.6,3.45-.6c1.02,0,1.87.18,2.56.53.71.35,1.23.88,1.56,1.56.31.62.5,1.26.56,1.93.09.64.11,1.33.07,2.06l-.13,6.11c-.04,1.33.02,2.31.2,2.96.2.64.62,1.12,1.26,1.43l-.93,1.33-.03-.16ZM70.95,52.61v.03c.93,0,1.77-.22,2.52-.66s1.37-1.06,1.86-1.86v-5.2c-.22-.02-.46-.03-.73-.03h-.8c-2.21,0-3.85.35-4.91,1.06-1.06.71-1.59,1.79-1.59,3.25,0,1.04.29,1.88.86,2.52.58.62,1.52.94,2.82.96l-.03-.07Z"/>
    <path class="cls-2" d="M83.23,53.61v.03-13.35c0-1.11-.07-1.93-.2-2.46s-.23-.84-.3-.93l1.86-.46c.07.09.17.38.3.86.13.49.2,1.16.2,2.03.22-.35.49-.7.8-1.03.31-.31.64-.6,1-.86.49-.38.97-.65,1.46-.83s.96-.27,1.43-.27c.22,0,.42.02.6.07.18.04.29.08.33.1l-.73,1.99c-.09-.04-.2-.09-.33-.13-.13-.02-.27-.03-.4-.03-.53,0-1.04.11-1.53.33s-.95.55-1.39,1c-.44.42-.75.83-.93,1.23-.18.4-.27.93-.27,1.59v11.19h-1.86l-.04-.07Z"/>
    <path class="cls-2" d="M96.91,53.84v.03l-6.04-17,1.89-.4,4.52,13.15c.15.46.28.9.37,1.29.11.4.19.66.23.8h.07c0-.13.06-.4.17-.8.11-.4.25-.84.43-1.33l4.52-12.85h1.99l-6.24,17.1h-1.91Z"/>
    <path class="cls-2" d="M119.92,54.17v.03c-.4-.35-.71-.74-.93-1.16s-.38-.96-.46-1.63c-.66.89-1.46,1.55-2.39,1.99-.93.46-1.95.7-3.05.7-.97,0-1.79-.18-2.46-.53s-1.16-.84-1.49-1.46c-.22-.31-.39-.7-.5-1.16-.13-.44-.2-.94-.2-1.49v-12.62l1.79-.4v12.48c0,.71.09,1.29.27,1.76.18.44.44.81.8,1.1.27.22.6.4,1,.53s.83.2,1.29.2c.89,0,1.75-.27,2.59-.8s1.55-1.28,2.13-2.26v-12.65l1.86-.33v12.95c0,1,.07,1.76.2,2.29.13.51.35.93.66,1.26l-1.23,1.23.12-.03Z"/>
    <path class="cls-2" d="M129.55,54.27v.03c-.46,0-.87-.07-1.23-.2-.35-.11-.66-.25-.93-.43-.44-.27-.77-.66-1-1.2-.22-.53-.33-1.18-.33-1.96v-12.24h-2.19v-1.39h2.19c0-.6.02-1.21.07-1.83.04-.62.09-1.17.13-1.66.04-.46.09-.76.13-.9l1.96-.4c-.04.13-.09.44-.13.93-.04.46-.09,1.03-.13,1.69-.04.66-.07,1.37-.07,2.13h4.18l-.6,1.39h-3.65v11.75c0,.93.18,1.63.53,2.09s.95.7,1.79.7c.4,0,.73-.03,1-.1.29-.07.54-.15.76-.27l.27,1.2c-.35.18-.75.31-1.2.4-.44.09-.93.13-1.46.13l-.09.14Z"/>
    <path class="cls-2" d="M136.96,32.89c-.42,0-.77-.14-1.06-.43-.29-.27-.43-.61-.43-1.03s.14-.76.43-1.03c.29-.29.64-.43,1.06-.43s.74.13,1.03.4.43.62.43,1.06-.14.76-.43,1.03c-.29.28-.64.43-1.03.43ZM135.96,53.61v.03-16.93l1.93-.3v17.27h-1.93v-.07Z"/>
    <path class="cls-2" d="M147.35,54.27v.03c-.46,0-.87-.07-1.23-.2-.35-.11-.66-.25-.93-.43-.44-.27-.77-.66-1-1.2-.22-.53-.33-1.18-.33-1.96v-12.24h-2.19v-1.39h2.19c0-.6.02-1.21.07-1.83.04-.62.09-1.17.13-1.66.04-.46.09-.76.13-.9l1.96-.4c-.04.13-.09.44-.13.93-.04.46-.09,1.03-.13,1.69-.04.66-.07,1.37-.07,2.13h4.18l-.6,1.39h-3.65v11.75c0,.93.18,1.63.53,2.09s.95.7,1.79.7c.4,0,.73-.03,1-.1.29-.07.54-.15.76-.27l.27,1.2c-.35.18-.75.31-1.2.4-.44.09-.93.13-1.46.13l-.09.14Z"/>
    <path class="cls-2" d="M159.97,54.04c-1.55,0-2.86-.38-3.92-1.13s-1.87-1.79-2.42-3.12c-.55-1.33-.83-2.89-.83-4.68,0-1.44.17-2.67.5-3.69.33-1.04.83-1.96,1.49-2.76.58-.69,1.26-1.23,2.06-1.63s1.7-.6,2.72-.6c.91,0,1.72.16,2.42.46.71.31,1.32.72,1.83,1.23.44.44.81.95,1.1,1.53.29.58.5,1.28.63,2.13.13.84.2,1.88.2,3.12v.4h-10.89v.86c.02.91.13,1.72.33,2.42.2.71.45,1.31.76,1.79.46.69,1.07,1.21,1.83,1.56.75.35,1.6.53,2.56.53.84,0,1.62-.12,2.32-.37.71-.27,1.35-.66,1.93-1.2l.73,1.2c-.71.62-1.52,1.08-2.42,1.39-.89.33-1.87.5-2.96.5l.03.06ZM154.79,43.74v.03h8.9c0-1.02-.08-1.86-.23-2.52-.16-.69-.37-1.25-.63-1.69-.33-.53-.79-.96-1.36-1.29-.58-.31-1.26-.46-2.06-.46-1.28,0-2.35.51-3.19,1.53-.82,1-1.28,2.5-1.39,4.52l-.04-.12Z"/>
    <path class="cls-2" d="M181.41,54.04c-.55-.18-1.01-.48-1.36-.9-.35-.4-.6-.91-.73-1.53-.71.8-1.46,1.37-2.26,1.73-.8.38-1.68.56-2.66.56-1.37-.02-2.46-.25-3.25-.7-.8-.46-1.35-1.05-1.66-1.76s-.46-1.45-.46-2.22c.02-1.93.8-3.38,2.32-4.35,1.53-.97,3.64-1.46,6.34-1.46h.93c.29.02.48.03.56.03v-1.56c0-.8-.04-1.44-.13-1.93-.09-.49-.27-.87-.53-1.16-.29-.31-.63-.55-1.03-.73s-.89-.27-1.46-.27c-1.02.02-2.01.23-2.99.63-.97.4-1.79.89-2.46,1.46l-.93-1.33c1.02-.71,2.08-1.26,3.19-1.66s2.26-.6,3.45-.6c1.02,0,1.87.18,2.56.53.71.35,1.23.88,1.56,1.56.31.62.5,1.26.56,1.93.09.64.11,1.33.07,2.06l-.13,6.11c-.04,1.33.02,2.31.2,2.96.2.64.62,1.12,1.26,1.43l-.93,1.33-.03-.16ZM174.74,52.61v.03c.93,0,1.77-.22,2.52-.66s1.37-1.06,1.86-1.86v-5.2c-.22-.02-.46-.03-.73-.03h-.8c-2.21,0-3.85.35-4.91,1.06-1.06.71-1.59,1.79-1.59,3.25,0,1.04.29,1.88.86,2.52.58.62,1.52.94,2.82.96l-.03-.07Z"/>
    <path class="cls-2" d="M192.74,54c-1.15,0-2.16-.22-3.02-.66-.86-.42-1.58-1.03-2.16-1.83-.51-.73-.9-1.62-1.16-2.66-.27-1.06-.4-2.22-.4-3.49,0-1.68.24-3.14.73-4.38.49-1.24,1.22-2.26,2.19-3.05.58-.49,1.17-.84,1.79-1.06s1.27-.33,1.96-.33c1.02,0,1.93.19,2.72.56.8.38,1.45.91,1.96,1.59v-9.82l1.86.33v19.39c0,1.35.04,2.42.13,3.22.09.8.22,1.44.4,1.93h-1.86c-.07-.13-.14-.4-.23-.8-.09-.4-.16-.81-.2-1.23-.58.78-1.25,1.34-2.03,1.69-.8.35-1.68.53-2.66.53l-.02.07ZM192.84,52.31v.03c1.15-.02,2.1-.28,2.86-.76.75-.49,1.31-1.08,1.66-1.79v-9.83c-.4-.58-.95-1.04-1.66-1.39s-1.6-.53-2.69-.53c-.71,0-1.37.16-1.99.46-.62.31-1.14.78-1.56,1.39-.46.64-.81,1.38-1.03,2.22s-.33,1.9-.33,3.19c0,1.02.07,1.95.2,2.79.13.86.35,1.56.66,2.09.42.73.95,1.27,1.59,1.63.64.35,1.41.53,2.29.53v-.03h0Z"/>
    <path class="cls-2" d="M216.61,54.17v.03c-.4-.35-.71-.74-.93-1.16-.22-.42-.38-.96-.46-1.63-.66.89-1.46,1.55-2.39,1.99-.93.46-1.95.7-3.05.7-.97,0-1.79-.18-2.46-.53s-1.16-.84-1.49-1.46c-.22-.31-.39-.7-.5-1.16-.13-.44-.2-.94-.2-1.49v-12.62l1.79-.4v12.48c0,.71.09,1.29.27,1.76.18.44.44.81.8,1.1.27.22.6.4,1,.53s.83.2,1.29.2c.89,0,1.75-.27,2.59-.8s1.55-1.28,2.13-2.26v-12.65l1.86-.33v12.95c0,1,.07,1.76.2,2.29.13.51.35.93.66,1.26l-1.23,1.23.12-.03Z"/>
    <path class="cls-2" d="M226.84,54v.03c-1.08,0-2.14-.14-3.15-.43s-1.93-.69-2.72-1.2l.73-1.36c.77.49,1.6.86,2.49,1.13s1.82.4,2.79.4c1.24,0,2.21-.31,2.92-.93.69-.62,1.03-1.45,1.03-2.49,0-.8-.24-1.46-.73-1.99s-1.28-.92-2.39-1.16l-2.13-.4c-1.33-.27-2.35-.77-3.05-1.53-.71-.75-1.06-1.73-1.06-2.92.02-1.44.53-2.6,1.53-3.49,1-.88,2.37-1.34,4.12-1.36.91,0,1.78.12,2.62.37.84.22,1.59.53,2.26.93l-.73,1.36c-.62-.35-1.27-.64-1.96-.86s-1.41-.33-2.16-.33c-1.2.02-2.1.32-2.72.9s-.93,1.33-.93,2.26c0,.8.23,1.44.7,1.93.46.46,1.17.8,2.13,1l2.19.46c1.53.31,2.65.85,3.35,1.63.69.78,1.03,1.74,1.03,2.89-.02,1.59-.56,2.86-1.63,3.79-1.06.95-2.51,1.44-4.35,1.46l-.18-.09Z"/>
    <path class="cls-2" d="M243.64,54.04c-1.55,0-2.86-.38-3.92-1.13s-1.87-1.79-2.42-3.12-.83-2.89-.83-4.68c0-1.44.17-2.67.5-3.69.33-1.04.83-1.96,1.49-2.76.58-.69,1.26-1.23,2.06-1.63s1.7-.6,2.72-.6c.91,0,1.72.16,2.42.46.71.31,1.32.72,1.83,1.23.44.44.81.95,1.1,1.53.29.58.5,1.28.63,2.13.13.84.2,1.88.2,3.12v.4h-10.89v.86c.02.91.13,1.72.33,2.42.2.71.45,1.31.76,1.79.46.69,1.07,1.21,1.83,1.56.75.35,1.6.53,2.56.53.84,0,1.62-.12,2.32-.37.71-.27,1.35-.66,1.93-1.2l.73,1.2c-.71.62-1.52,1.08-2.42,1.39-.89.33-1.87.5-2.96.5l.03.06ZM238.46,43.74v.03h8.9c0-1.02-.08-1.86-.23-2.52-.16-.69-.37-1.25-.63-1.69-.33-.53-.79-.96-1.36-1.29-.58-.31-1.26-.46-2.06-.46-1.28,0-2.35.51-3.19,1.53-.82,1-1.28,2.5-1.39,4.52l-.04-.12Z"/>
    <path class="cls-2" d="M262.7,32.89c-.42,0-.77-.14-1.06-.43-.29-.27-.43-.61-.43-1.03s.14-.76.43-1.03c.29-.29.64-.43,1.06-.43s.74.13,1.03.4.43.62.43,1.06-.14.76-.43,1.03c-.29.28-.64.43-1.03.43ZM261.7,53.61v.03-16.93l1.93-.3v17.27h-1.93v-.07Z"/>
    <path class="cls-2" d="M269.67,53.67v.03-13.38c0-.93-.07-1.66-.2-2.19s-.27-.93-.4-1.2l1.79-.46c.04.09.13.38.27.86.13.49.21,1.11.23,1.86.84-.88,1.73-1.56,2.66-2.03.91-.46,1.85-.7,2.82-.7.89,0,1.66.18,2.32.53s1.16.84,1.49,1.46c.2.31.37.66.5,1.06.11.4.17.82.17,1.26v12.88h-1.86v-11.93c0-.77-.07-1.37-.2-1.79-.13-.42-.33-.79-.6-1.1-.22-.24-.53-.43-.93-.56-.4-.15-.84-.23-1.33-.23-.8,0-1.65.23-2.56.7-.93.49-1.75,1.13-2.46,1.93v13.02h-1.79.08v-.02Z"/>
    <path class="cls-2" d="M291.22,54v.03c-1.08,0-2.14-.14-3.15-.43s-1.93-.69-2.72-1.2l.73-1.36c.77.49,1.6.86,2.49,1.13s1.82.4,2.79.4c1.24,0,2.21-.31,2.92-.93.69-.62,1.03-1.45,1.03-2.49,0-.8-.24-1.46-.73-1.99s-1.28-.92-2.39-1.16l-2.13-.4c-1.33-.27-2.35-.77-3.05-1.53-.71-.75-1.06-1.73-1.06-2.92.02-1.44.53-2.6,1.53-3.49,1-.88,2.37-1.34,4.12-1.36.91,0,1.78.12,2.62.37.84.22,1.59.53,2.26.93l-.73,1.36c-.62-.35-1.27-.64-1.96-.86s-1.41-.33-2.16-.33c-1.2.02-2.1.32-2.72.9s-.93,1.33-.93,2.26c0,.8.23,1.44.7,1.93.46.46,1.17.8,2.13,1l2.19.46c1.53.31,2.65.85,3.35,1.63.69.78,1.03,1.74,1.03,2.89-.02,1.59-.56,2.86-1.63,3.79-1.06.95-2.51,1.44-4.35,1.46l-.18-.09Z"/>
    <path class="cls-2" d="M305.3,54.27v.03c-.46,0-.87-.07-1.23-.2-.35-.11-.66-.25-.93-.43-.44-.27-.77-.66-1-1.2s-.33-1.18-.33-1.96v-12.24h-2.19v-1.39h2.19c0-.6.02-1.21.07-1.83.04-.62.09-1.17.13-1.66.04-.46.09-.76.13-.9l1.96-.4c-.04.13-.09.44-.13.93-.04.46-.09,1.03-.13,1.69s-.07,1.37-.07,2.13h4.18l-.6,1.39h-3.65v11.75c0,.93.18,1.63.53,2.09s.95.7,1.79.7c.4,0,.73-.03,1-.1.29-.07.54-.15.76-.27l.27,1.2c-.35.18-.75.31-1.2.4-.44.09-.93.13-1.46.13l-.09.14Z"/>
    <path class="cls-2" d="M312.7,32.89c-.42,0-.77-.14-1.06-.43-.29-.27-.43-.61-.43-1.03s.14-.76.43-1.03c.29-.29.64-.43,1.06-.43s.74.13,1.03.4.43.62.43,1.06-.14.76-.43,1.03c-.29.28-.63.43-1.03.43ZM311.7,53.61v.03-16.93l1.93-.3v17.27h-1.93v-.07Z"/>
    <path class="cls-2" d="M323.09,54.27v.03c-.46,0-.87-.07-1.23-.2-.35-.11-.66-.25-.93-.43-.44-.27-.77-.66-1-1.2s-.33-1.18-.33-1.96v-12.24h-2.19v-1.39h2.19c0-.6.02-1.21.07-1.83.04-.62.09-1.17.13-1.66.04-.46.09-.76.13-.9l1.96-.4c-.04.13-.09.44-.13.93-.04.46-.09,1.03-.13,1.69s-.07,1.37-.07,2.13h4.18l-.6,1.39h-3.65v11.75c0,.93.18,1.63.53,2.09s.95.7,1.79.7c.4,0,.73-.03,1-.1.29-.07.54-.15.76-.27l.27,1.2c-.35.18-.75.31-1.2.4-.44.09-.93.13-1.46.13l-.09.14Z"/>
    <path class="cls-2" d="M340.92,54.17v.03c-.4-.35-.71-.74-.93-1.16s-.38-.96-.46-1.63c-.66.89-1.46,1.55-2.39,1.99-.93.46-1.95.7-3.05.7-.97,0-1.79-.18-2.46-.53s-1.16-.84-1.49-1.46c-.22-.31-.39-.7-.5-1.16-.13-.44-.2-.94-.2-1.49v-12.62l1.79-.4v12.48c0,.71.09,1.29.27,1.76.18.44.44.81.8,1.1.27.22.6.4,1,.53s.83.2,1.29.2c.89,0,1.75-.27,2.59-.8s1.55-1.28,2.13-2.26v-12.65l1.86-.33v12.95c0,1,.07,1.76.2,2.29.13.51.35.93.66,1.26l-1.23,1.23.12-.03Z"/>
    <path class="cls-2" d="M358.49,54.17v.03c-.4-.35-.71-.74-.93-1.16s-.38-.96-.46-1.63c-.66.89-1.46,1.55-2.39,1.99-.93.46-1.95.7-3.05.7-.97,0-1.79-.18-2.46-.53s-1.16-.84-1.49-1.46c-.22-.31-.39-.7-.5-1.16-.13-.44-.2-.94-.2-1.49v-12.62l1.79-.4v12.48c0,.71.09,1.29.27,1.76.18.44.44.81.8,1.1.27.22.6.4,1,.53s.83.2,1.29.2c.89,0,1.75-.27,2.59-.8s1.55-1.28,2.13-2.26v-12.65l1.86-.33v12.95c0,1,.07,1.76.2,2.29.13.51.35.93.66,1.26l-1.23,1.23.12-.03Z"/>
    <path class="cls-2" d="M368.12,54.27v.03c-.46,0-.87-.07-1.23-.2-.35-.11-.66-.25-.93-.43-.44-.27-.77-.66-1-1.2s-.33-1.18-.33-1.96v-12.24h-2.19v-1.39h2.19c0-.6.02-1.21.07-1.83.04-.62.09-1.17.13-1.66.04-.46.09-.76.13-.9l1.96-.4c-.04.13-.09.44-.13.93-.04.46-.09,1.03-.13,1.69s-.07,1.37-.07,2.13h4.18l-.6,1.39h-3.65v11.75c0,.93.18,1.63.53,2.09s.95.7,1.79.7c.4,0,.73-.03,1-.1.29-.07.54-.15.76-.27l.27,1.2c-.35.18-.75.31-1.2.4-.44.09-.93.13-1.46.13l-.09.14Z"/>
  </g>
  <path class="cls-2" d="M77.05,2.78c-.04-.13-.15-.27-.43-.27-.09,0-.16.05-.22.15-.04.07-.09.14-.15.22s-.13.15-.21.22c-.07.06-.16.1-.26.12-.16.02-.31.03-.47.04-.68.02-1.32,0-1.94.02-1.05.02-2.21.02-3.4,0-.65-.02-1.3-.04-1.93-.07-.14,0-.25-.04-.32-.09-.08-.06-.15-.12-.19-.18-.05-.07-.09-.13-.13-.18-.07-.1-.16-.12-.21-.12-.16,0-.29.05-.38.13-.08.08-.15.18-.19.3-.04.11-.07.24-.07.38v.05c-.02.11-.03.22-.04.32-.05.54-.12.96-.2,1.25-.09.31-.13.55-.13.74,0,.15.04.25.12.31.07.06.17.09.3.09.08,0,.16-.07.28-.27.09-.15.19-.32.28-.5.1-.19.18-.36.27-.53.1-.2.16-.28.18-.3.2-.19.41-.32.62-.38.22-.07.44-.1.68-.1h.98c.25,0,.48.02.7.05.25.04.28.11.28.12.01.06.02.18.02.28.01.14.01.23.01.29v7.64c0,.29-.02.53-.04.73-.03.18-.09.34-.17.46s-.21.21-.37.27c-.18.07-.42.12-.73.15-.02.01-.07.01-.18.01-.12,0-.23.02-.34.06-.1.04-.2.12-.2.34s.15.28.22.28c.09.01.19.02.27.02.38,0,.77-.01,1.14-.04.77-.06,1.6-.05,2.37,0,.41.03.84.04,1.26.04.14,0,.25-.01.33-.02.13-.02.19-.14.19-.36,0-.11-.05-.28-.36-.32l-.62-.07c-.22-.02-.43-.09-.63-.18-.18-.09-.29-.26-.34-.52-.03-.16-.05-.33-.05-.49-.01-.17-.01-.33-.01-.5.02-.93.02-1.86-.01-2.78-.02-.91-.03-1.85-.01-2.77l.03-1.93c0-.24.01-.41.04-.52.03-.13.06-.18.08-.21.02-.03.05-.03.09-.04.14.01.29.01.53,0,.29-.01.68-.01,1.08.02.24.01.46.04.66.08.2.04.37.09.52.16.13.07.22.15.26.26.06.15.08.3.07.47-.01.18-.02.34-.04.49-.02.16-.02.3.01.41.02.08.08.23.32.23.14,0,.33-.07.43-.42.07-.23.13-.52.16-.84.04-.32.07-.64.09-.97.03-.32.07-.58.14-.77.01-.15.01-.29-.04-.45"/>
  <path class="cls-2" d="M83.85,8.77s-.04.01-.05.02c-.65,0-1.15,0-1.51.01s-.63.01-.81.01h-.28c.19-.44.34-.82.46-1.11.14-.33.26-.62.37-.89.1-.26.21-.52.31-.76.09-.2.18-.42.3-.68.02.06.05.14.09.24.09.25.2.56.32.92s.26.75.41,1.17c.14.37.27.73.39,1.07M88.96,14.1c-.13-.04-.28-.08-.45-.1-.17-.03-.33-.08-.5-.14-.15-.05-.27-.17-.35-.34-.53-1.11-1.05-2.24-1.53-3.36-.47-1.1-.94-2.25-1.39-3.41-.24-.6-.49-1.21-.74-1.83-.26-.62-.5-1.23-.74-1.83-.02-.06-.06-.12-.11-.19-.06-.08-.15-.13-.25-.13-.12,0-.2.03-.24.1-.03.04-.06.1-.08.17-.39.96-.78,1.91-1.17,2.86s-.78,1.9-1.17,2.86l-.69,1.68c-.22.54-.45,1.11-.67,1.68-.03.07-.08.19-.13.34-.06.15-.12.31-.19.46-.07.16-.14.31-.2.45-.08.18-.11.24-.13.26-.08.13-.18.21-.29.25-.13.04-.25.07-.37.09-.13.02-.24.06-.33.1-.08.04-.18.14-.18.35,0,.08.02.16.07.23.05.08.14.12.24.12.24,0,.47-.02.67-.04.46-.06,1.08-.05,1.66.02.35.04.7.06,1.03.06.11,0,.21-.04.29-.11.09-.08.13-.18.13-.29,0-.2-.12-.34-.33-.39-.17-.04-.36-.07-.57-.09-.2-.02-.37-.06-.54-.12-.08-.03-.19-.1-.19-.34,0-.02.01-.1.1-.42.07-.24.16-.55.28-.9.12-.36.25-.76.42-1.18.15-.41.33-.84.51-1.27.12-.02.27-.04.45-.05.42-.02.86-.02,1.25-.01.21.01.37.01.5.01h.3c.17,0,.34.01.51.02.14.01.25.05.32.12,0,0,.02.02.06.13.04.09.08.18.13.28.16.38.31.75.46,1.1.15.36.28.68.39.98l.3.77c.08.21.14.37.17.49.01.03.02.06.03.09s.01.05.01.08c0,.17-.08.22-.15.24-.14.04-.3.07-.48.07-.19.01-.36.03-.5.05-.26.04-.31.21-.31.3,0,.12.05.23.15.31.09.08.2.12.32.12.37,0,.74-.02,1.1-.05.6-.05,1.23-.08,1.83,0,.26.03.51.05.77.05h.17c.11,0,.23-.02.36-.06.2-.07.23-.21.23-.29.02-.17-.07-.3-.24-.35"/>
  <path class="cls-2" d="M97.22,7.41c-.15.3-.35.55-.6.72-.26.18-.57.3-.92.36-.36.06-.76.1-1.17.1-.18,0-.31-.02-.39-.04-.08-.03-.1-.07-.11-.1-.02-.06-.03-.14-.03-.24.01-.11.01-.25.01-.41,0-.42,0-.89.02-1.42.01-.53.01-1,.01-1.42v-.54c0-.23.05-.4.15-.51.07-.07.23-.16.65-.16.38,0,.73.05,1.04.16.31.1.58.26.81.47.23.2.41.46.54.76s.19.66.19,1.07c.02.5-.05.9-.2,1.2M101.81,14.86c-.11-.02-.23-.06-.36-.12-.42-.09-.8-.28-1.12-.57-.33-.29-.63-.64-.9-1.03-.27-.4-.52-.82-.73-1.26-.22-.45-.43-.87-.63-1.27-.2-.41-.4-.76-.59-1.04-.15-.22-.31-.39-.48-.5.22-.11.45-.24.67-.38.28-.18.54-.39.77-.63.23-.24.43-.51.57-.81.15-.3.22-.63.22-.98,0-.63-.12-1.17-.36-1.58s-.54-.74-.9-.99c-.36-.24-.74-.41-1.15-.5-.4-.09-.79-.14-1.14-.14-.41,0-.82,0-1.21.02-.4.02-.8.02-1.2.02h-1.37c-.11,0-.23,0-.35-.02-.25-.02-.48-.03-.72.02-.09.02-.24.1-.24.36,0,.13.07.23.19.28.09.03.21.06.35.07.13,0,.27.02.42.03.14,0,.27.04.39.08.11.04.2.11.28.21.07.1.11.24.11.43,0,.88-.01,1.78-.03,2.66-.01.9-.02,1.8-.02,2.67v3.25c0,.2-.04.36-.11.47-.07.12-.17.2-.29.27-.12.07-.25.11-.39.14-.15.03-.29.05-.41.07-.14.02-.25.05-.34.07-.12.04-.19.13-.19.24,0,.19.03.3.11.34.06.04.16.05.32.05.33,0,.66-.01.98-.05.68-.07,1.38-.06,2.07.01.38.04.76.06,1.15.06.22,0,.38-.02.5-.05.1-.03.22-.12.22-.36,0-.13-.07-.22-.18-.25-.08-.02-.17-.04-.27-.04-.06,0-.08-.01-.08-.01h-.03c-.22-.05-.41-.09-.57-.11-.16-.02-.29-.06-.4-.12-.1-.05-.18-.14-.24-.26s-.09-.32-.09-.57v-3.25c0-.31.04-.42.06-.46.01-.02.06-.08.3-.08.36,0,.66.09.9.26.25.18.47.42.66.7s.36.6.51.95c.15.35.32.71.5,1.04.32.83.79,1.54,1.41,2.12s1.39.95,2.3,1.11c.07.01.17.02.28.03s.21.02.32.02c.28,0,.47-.02.6-.07l.04-.02c.11-.11.17-.21.17-.31-.02-.03-.05-.17-.28-.22"/>
  <path class="cls-2" d="M112.65,2.51c-.09,0-.16.05-.22.15-.04.07-.09.14-.15.22s-.13.15-.21.22c-.07.06-.16.1-.27.12-.16.02-.32.03-.47.04-.68.02-1.33,0-1.94.02-1.05.02-2.21.02-3.4,0-.65-.02-1.3-.04-1.93-.07-.14,0-.25-.04-.32-.09-.08-.06-.15-.12-.19-.18-.05-.07-.1-.13-.13-.18-.07-.1-.16-.12-.21-.12-.16,0-.29.05-.38.13-.08.08-.15.18-.19.3-.04.11-.07.24-.08.38v.09c-.02.1-.02.19-.03.28-.06.54-.12.96-.2,1.25-.08.31-.13.56-.13.74,0,.15.04.25.11.31s.17.09.3.09c.08,0,.16-.08.28-.27.09-.16.19-.32.28-.5.1-.18.19-.36.27-.53.1-.2.16-.28.19-.3.2-.19.41-.32.61-.38.22-.07.45-.1.68-.1h.97c.25,0,.48.02.7.05.25.04.28.11.28.12.01.05.02.18.02.28.01.14.01.24.01.29v7.64c0,.29-.01.53-.05.73-.03.18-.09.34-.17.45-.08.12-.21.21-.38.27-.18.07-.41.12-.72.15-.02.01-.07.01-.18.01-.12,0-.23.02-.34.06-.09.04-.2.13-.2.33,0,.23.15.28.22.28.09.01.18.02.27.02.39,0,.77-.01,1.14-.04.77-.06,1.6-.05,2.37,0,.41.03.84.04,1.26.04.14,0,.25-.01.33-.02.13-.02.19-.14.19-.36,0-.1-.04-.28-.36-.32l-.62-.07c-.22-.02-.43-.09-.63-.18-.18-.08-.29-.26-.34-.52-.03-.16-.05-.33-.05-.49-.01-.17-.01-.33-.01-.5.02-.93.02-1.86-.01-2.78-.02-.93-.03-1.86-.01-2.78l.03-1.93c0-.23.01-.41.04-.52.03-.13.06-.18.08-.2.02-.02.04-.03.09-.04.14.01.29.01.53,0,.29-.02.68-.01,1.09.01.24.02.46.04.66.08.2.04.38.09.51.16s.22.15.27.26c.05.15.08.3.07.46-.01.18-.02.34-.04.49-.02.16-.02.3.01.41.02.08.08.23.32.23.14,0,.33-.07.43-.42.07-.23.12-.52.16-.84s.07-.64.09-.97c.03-.32.07-.58.14-.77.05-.14.05-.29-.01-.44-.04-.1-.15-.24-.43-.24"/>
  <path class="cls-2" d="M126.88,3.11h-.03c-.28,0-.57,0-.86,0-.54.03-1.13.04-1.67,0-.28-.02-.56-.03-.84-.03-.09,0-.18,0-.26.04-.07.02-.18.08-.18.28,0,.23.11.34.2.39.11.06.24.11.39.14.14.02.29.05.44.07.13.02.23.07.31.14.07.07.13.21.16.4.03.22.05.48.05.76s-.01.57-.02.88c-.01.31-.02.58-.02.83v3.37c0,.31-.03.61-.09.9-.09.52-.22.97-.39,1.32-.16.35-.37.64-.63.86-.26.22-.57.38-.94.48s-.83.15-1.36.15c-.44,0-.85-.04-1.21-.14-.35-.09-.66-.25-.91-.48-.26-.23-.47-.55-.62-.96-.16-.41-.26-.94-.3-1.58-.02-.32-.03-.65-.04-.97,0-.33-.01-.65-.01-.98v-2.91c0-.16.01-.33.01-.5.01-.18.02-.36.03-.52.01-.17.03-.32.05-.45s.04-.23.07-.29c.06-.14.16-.23.31-.28.17-.05.35-.09.52-.13.18-.03.35-.07.49-.11.18-.05.29-.19.29-.37,0-.16-.1-.27-.27-.3-.14-.02-.24-.03-.33-.03-.37,0-.73.02-1.09.05-.67.06-1.38.07-2.06,0-.34-.03-.67-.05-1.01-.05-.26,0-.41.14-.41.4,0,.11.04.19.13.25.07.05.15.08.24.1.08.02.16.03.25.03.08,0,.15,0,.2,0h.17c.19,0,.32.05.41.14.1.11.17.23.21.38.05.15.07.32.07.5.01.19.01.36.01.5,0,.9-.01,1.79-.04,2.65-.02.87-.03,1.77-.03,2.65v.58c0,.1,0,.19.01.29s.02.2.02.29c.07.62.22,1.14.48,1.55.24.41.57.74.96.99.38.25.83.42,1.32.53.49.1,1.01.15,1.55.15.45,0,.92-.04,1.4-.1.48-.07.95-.19,1.4-.36.52-.21.92-.5,1.21-.89.28-.38.49-.8.63-1.27s.22-.96.25-1.47.04-1,.04-1.45c0-.29,0-.57-.01-.85-.01-.28-.01-.57-.01-.85,0-.32,0-.68-.01-1.1s-.01-.82,0-1.21c0-.39.02-.72.06-1.01.04-.38.1-.42.11-.42.03-.02.09-.04.27-.07.16-.02.32-.05.49-.09.18-.04.33-.09.46-.16.2-.1.24-.25.24-.35.03-.09-.02-.23-.26-.32"/>
  <path class="cls-2" d="M141.29,2s.06.02.1.02c.28,0,.51-.09.7-.26s.29-.41.29-.7c0-.27-.09-.49-.27-.66-.18-.17-.4-.25-.67-.25s-.51.09-.68.27c-.18.17-.27.4-.27.67,0,.23.08.44.22.62.15.16.35.27.58.29"/>
  <path class="cls-2" d="M138.18,2c.25,0,.48-.08.67-.24.2-.17.29-.39.29-.66,0-.24-.09-.47-.26-.66-.18-.2-.4-.3-.65-.3-.27,0-.5.09-.7.27-.2.18-.3.41-.3.68s.1.49.28.66c.19.17.42.25.67.25"/>
  <path class="cls-2" d="M145.22,3.11h-.03c-.28,0-.57,0-.86,0-.54.03-1.13.04-1.67,0-.29-.02-.57-.03-.84-.03-.09,0-.18,0-.26.04-.07.02-.18.08-.18.28,0,.23.11.34.2.39.11.06.24.11.39.14.14.02.29.05.44.07.13.02.23.07.31.14.08.07.13.21.16.4.03.22.05.48.05.76s0,.57-.02.88c0,.31-.02.58-.02.83v3.37c0,.31-.03.61-.09.9-.09.52-.22.97-.39,1.32-.16.35-.38.64-.63.86-.26.22-.57.38-.94.48-.38.1-.83.15-1.36.15-.44,0-.84-.04-1.21-.14-.35-.09-.66-.25-.92-.48s-.46-.55-.62-.96c-.16-.41-.26-.94-.3-1.58-.02-.32-.03-.65-.04-.97,0-.33,0-.65,0-.98v-2.91c0-.16,0-.33,0-.5,0-.18.02-.35.03-.52s.03-.32.05-.45.04-.23.08-.29c.06-.14.16-.23.3-.28.17-.05.35-.09.52-.13.18-.03.35-.07.49-.11.19-.05.29-.19.29-.37,0-.16-.1-.27-.27-.3-.13-.02-.24-.03-.33-.03-.37,0-.73.02-1.09.05-.67.06-1.38.07-2.06,0-.34-.03-.68-.05-1.01-.05-.26,0-.41.14-.41.4,0,.11.04.19.13.25.07.05.15.08.24.1.08.02.16.03.25.03.08,0,.15,0,.2,0h.17c.18,0,.32.05.41.14.1.11.17.23.21.38.04.15.07.32.07.5,0,.19,0,.36,0,.5,0,.9,0,1.79-.03,2.65-.02.9-.03,1.79-.03,2.65v.58c0,.1,0,.19,0,.29s.02.2.02.29c.07.62.22,1.14.47,1.55s.57.74.96.99c.38.25.83.42,1.32.53.49.1,1.01.15,1.55.15.45,0,.92-.04,1.4-.1.48-.07.95-.19,1.4-.36.52-.21.93-.5,1.21-.89.28-.38.49-.8.63-1.27s.22-.96.24-1.47c.03-.51.04-1,.04-1.45,0-.29,0-.57,0-.85,0-.28,0-.57,0-.85,0-.32,0-.68,0-1.1s0-.82,0-1.21c0-.39.02-.72.05-1.01.04-.38.11-.42.11-.42.03-.02.09-.04.27-.07.16-.02.32-.05.49-.09.18-.04.33-.09.46-.16.2-.1.24-.25.24-.35.06-.09,0-.23-.23-.32"/>
  <path class="cls-2" d="M156.43,11.07c-.15-.03-.28,0-.41.1-.03.03-.08.09-.24.38-.12.21-.25.43-.41.69s-.32.5-.51.73c-.17.23-.34.39-.51.48-.09.06-.26.13-.52.22-.26.09-.55.16-.86.21-.32.05-.64.05-.98.01-.32-.04-.61-.15-.86-.34-.06-.05-.11-.15-.14-.29-.04-.16-.07-.34-.09-.54-.02-.2-.04-.41-.04-.64s0-.43,0-.62v-.6c0-.96,0-1.9.02-2.82,0-.94.02-1.89.02-2.82v-.29c0-.11.02-.23.03-.34s.04-.22.07-.31c.03-.09.08-.16.14-.21.09-.07.21-.11.36-.13l.51-.05c.17-.02.33-.04.45-.08.16-.05.25-.17.25-.34,0-.11-.06-.22-.18-.32l-.03-.02h-.03c-.44,0-.85,0-1.2.03-.69.04-1.47.05-2.18-.03-.36-.04-.72-.05-1.09-.05-.13,0-.25,0-.37.03-.1.02-.26.08-.26.35,0,.19.11.32.32.35.17.03.35.05.56.08.2.02.39.07.56.15.15.07.25.19.28.39.04.21.06.44.06.7v4.6c0,.3,0,.64.03,1.07.02.42.03.84.03,1.23s-.02.76-.06,1.09c-.04.32-.11.53-.22.64-.14.13-.28.2-.44.22-.17.02-.34.04-.49.05-.17.01-.31.04-.42.07-.1.04-.22.13-.22.37,0,.08.03.16.08.23.06.08.14.12.23.12.34,0,.65-.01.92-.03.26-.02.51-.04.74-.06.24-.02.48-.04.74-.06.25-.02.55-.03.9-.03.69,0,1.41.05,2.13.14.74.09,1.47.14,2.16.14.16,0,.24-.2.29-.38.06-.2.13-.48.21-.81s.2-.7.34-1.11c.15-.41.35-.82.61-1.24l.03-.04-.02-.05c-.04-.1-.14-.19-.28-.22"/>
  <path class="cls-2" d="M161.44,6.85c.02-.65.02-1.32.02-1.97,0-.18,0-.34.02-.48,0-.12.04-.22.11-.29.06-.08.16-.14.29-.17.15-.04.37-.06.64-.06.16,0,.3-.02.41-.05.09-.03.24-.11.24-.36,0-.04,0-.09-.04-.16s-.05-.11-.09-.14l-.03-.03h-1.41c-.15,0-.3,0-.46.03-.16,0-.31.02-.45.02-.3,0-.61-.02-.91-.04-.31-.03-.63-.05-.93-.05h-.17c-.08,0-.18,0-.29.02-.15.02-.23.13-.23.28,0,.24.11.33.21.37.11.05.24.07.4.09.14,0,.3.03.45.06.13.02.25.08.35.17.03.05.08.16.12.4.03.2.05.4.05.57v.3c0,.26,0,.53,0,.79s0,.53,0,.8l-.02,5.53v.33c0,.19,0,.4-.04.61-.02.19-.08.32-.17.39-.09.08-.21.14-.35.18-.16.04-.31.07-.44.09-.15.03-.28.06-.39.1-.14.05-.22.15-.22.29,0,.16.07.28.21.33.11.04.23.06.34.06h.22c.32,0,.61-.02.86-.06.47-.07,1.1-.07,1.71-.01.46.05.91.07,1.37.03.2-.02.31-.15.31-.36,0-.08-.03-.23-.24-.28-.12-.03-.25-.06-.41-.09-.15-.03-.31-.06-.47-.09-.14-.03-.26-.08-.34-.15-.11-.1-.17-.24-.2-.43-.03-.2-.04-.39-.04-.55v-4.02c0-.7.02-1.36.03-2"/>
  <path class="cls-2" d="M177.16,14.13c-.13-.04-.26-.07-.4-.09-.25-.06-.49-.16-.7-.31-.22-.15-.44-.32-.64-.52s-.4-.41-.59-.63c-.19-.23-.37-.44-.56-.65-.07-.07-.21-.22-.42-.45l-.72-.78c-.28-.29-.56-.61-.87-.94-.3-.33-.58-.64-.84-.93s-.48-.54-.66-.75c-.17-.19-.24-.29-.27-.33.03-.04.11-.13.28-.29.2-.19.44-.42.72-.68s.59-.54.93-.84c.32-.29.65-.57.96-.83.3-.26.57-.48.81-.67.29-.23.41-.31.47-.34.13-.07.28-.12.45-.14.18-.03.36-.05.53-.07s.32-.05.45-.1c.15-.05.24-.17.24-.33,0-.13-.05-.23-.16-.29-.09-.05-.18-.08-.28-.08-.27,0-.53,0-.79.02-.53.03-1.11.03-1.65,0-.43-.02-.85-.03-1.32-.02-.2,0-.34.1-.4.28v.16c0,.09.03.25.29.28.15.02.32.04.49.04.17,0,.33.02.47.04s.14.07.14.1c0,0,0,.07-.19.28-.14.17-.32.37-.54.59-.22.22-.47.46-.73.71-.27.25-.52.49-.76.72-.24.23-.46.43-.65.61-.2.18-.33.31-.41.38l-.21.2c-.08.08-.17.17-.27.24-.1.08-.21.15-.32.21-.07.04-.14.07-.21.08.02-.1.02-.13.02-.15v-.84c0-.25,0-.5,0-.73,0-.24,0-.48,0-.73v-.84c0-.43.09-.62.17-.69.11-.11.25-.17.4-.2.17-.02.33-.02.48,0,.2.02.34-.03.41-.15.03-.04.05-.1.06-.17,0-.05.03-.09.04-.13v-.04c0-.06-.01-.18-.2-.24-.1-.03-.21-.05-.3-.05h-.14c-.24,0-.49,0-.72.04-.22.03-.46.04-.7.04h-.49c-.27,0-.54-.02-.8-.05-.27-.03-.54-.05-.82-.05h-.17c-.1,0-.21.02-.32.04-.19.05-.22.18-.22.26,0,.2.09.3.16.35.09.06.2.1.34.12.12.02.26.02.39.02.12,0,.23,0,.34.02.16.02.26.1.29.23.04.17.07.33.07.49v1.92c0,1.08,0,2.13-.02,3.13-.02,1.05-.02,2.11-.02,3.13,0,.09,0,.2-.02.32,0,.12-.03.23-.06.34s-.07.21-.13.3c-.05.08-.11.14-.19.18-.07.03-.18.06-.31.06-.15.01-.3.02-.44.03-.15.02-.28.05-.4.1-.14.06-.21.18-.21.35,0,.16.1.27.26.3.12.02.24.03.34.03.45,0,.88-.02,1.28-.05s.83-.05,1.27-.05c.22,0,.44.02.65.04.22.03.44.04.66.04h.2c.12,0,.24-.03.34-.08.13-.06.2-.18.2-.33,0-.18-.1-.25-.17-.27-.08-.03-.17-.05-.27-.05-.1-.01-.19-.01-.29,0h-.03c-.07,0-.09-.01-.1-.02l-.03-.02h-.04c-.2.02-.35-.01-.45-.09-.11-.08-.19-.2-.24-.33-.05-.15-.09-.32-.1-.5,0-.13,0-.3,0-.45,0-.39,0-.77,0-1.15s0-.76,0-1.15v-.71c0-.15,0-.29,0-.41,0-.16,0-.23.02-.26t0-.02c.06.02.14.04.25.04.12.06.27.18.47.36.21.2.45.43.7.69s.52.55.79.86c.27.3.54.61.79.9s.48.56.69.8l.47.56s.06.09.12.17c.06.07.12.15.18.23s.12.16.17.23c.05.06.08.1.09.13.04.06.05.09.05.09-.07.03-.14.04-.21.04-.05,0-.15,0-.28-.01-.14,0-.29,0-.44.03-.15.02-.3.06-.41.12-.18.09-.22.22-.22.32,0,.17.05.28.15.32.08.03.17.05.29.05.4,0,.82-.01,1.22-.04.75-.05,1.48-.06,2.19,0,.32.03.66.04,1,.04.07,0,.15-.01.26-.02.19-.03.24-.16.25-.24.02-.3-.15-.39-.24-.42"/>
  <path class="cls-2" d="M183.9,3.58c.39,0,.77.06,1.11.18.57.2,1.08.51,1.5.94.43.43.79.95,1.06,1.54.28.6.48,1.24.61,1.9.1.59.15,1.22.14,1.88,0,.65-.12,1.27-.32,1.86-.21.58-.53,1.09-.97,1.51s-1.04.7-1.8.84c-.3.05-.58.08-.85.08-.44,0-.84-.08-1.2-.22-.58-.24-1.09-.59-1.49-1.05-.41-.46-.75-1.01-1-1.62-.26-.61-.44-1.23-.54-1.84-.12-.59-.17-1.22-.17-1.85s.11-1.24.31-1.79.52-1.04.96-1.44c.44-.41,1.05-.68,1.82-.83.29-.06.57-.09.83-.09M188.49,4.48c-.56-.53-1.23-.94-1.98-1.23s-1.56-.44-2.39-.44-1.69.16-2.42.47c-.74.31-1.38.75-1.92,1.31-.54.55-.96,1.21-1.26,1.97-.3.75-.45,1.58-.45,2.47s.15,1.7.44,2.44c.29.74.71,1.39,1.22,1.93.53.54,1.16.97,1.89,1.28.73.3,1.54.46,2.39.46s1.7-.17,2.47-.51c.77-.33,1.44-.79,2.01-1.36.57-.57,1.02-1.24,1.35-2,.32-.76.49-1.58.49-2.43s-.17-1.72-.5-2.46c-.33-.73-.78-1.37-1.34-1.9"/>
  <path class="cls-2" d="M198.16,3.58c.39,0,.76.06,1.11.18.57.2,1.08.51,1.5.94.43.43.78.95,1.06,1.54.28.6.48,1.24.61,1.9.1.59.15,1.22.14,1.88,0,.65-.12,1.27-.33,1.86-.21.58-.53,1.09-.97,1.51-.43.42-1.04.7-1.79.84-.3.05-.58.08-.85.08-.44,0-.84-.08-1.19-.22-.58-.24-1.09-.59-1.5-1.05s-.75-1.01-1-1.62c-.26-.61-.44-1.23-.54-1.84-.11-.59-.17-1.22-.17-1.85,0-.63.11-1.24.31-1.79s.52-1.04.96-1.44c.44-.41,1.05-.68,1.82-.83.29-.06.56-.09.83-.09M202.74,4.48c-.56-.53-1.23-.94-1.98-1.23s-1.55-.44-2.39-.44-1.69.16-2.42.47-1.38.75-1.92,1.31c-.54.55-.96,1.22-1.26,1.97-.3.75-.45,1.58-.45,2.47s.15,1.7.44,2.44c.29.74.71,1.39,1.23,1.93.52.54,1.16.97,1.89,1.28.73.3,1.54.46,2.4.46s1.7-.17,2.47-.51c.76-.33,1.44-.79,2.01-1.36.57-.57,1.02-1.24,1.35-2,.32-.76.49-1.58.49-2.43s-.17-1.72-.5-2.46c-.34-.73-.79-1.37-1.36-1.9"/>
  <path class="cls-2" d="M215.16,11.31c-.06-.12-.16-.21-.3-.24s-.28,0-.41.1c-.03.03-.08.09-.24.38-.11.2-.25.43-.41.69-.15.26-.33.5-.51.73s-.35.39-.51.48c-.09.06-.26.13-.52.22-.25.09-.55.16-.86.21s-.64.05-.98.01c-.32-.04-.61-.15-.86-.34-.06-.05-.1-.15-.14-.29-.04-.16-.07-.34-.09-.54-.02-.2-.04-.41-.04-.64v-1.22c0-.96,0-1.9,0-2.82,0-.94.02-1.89.02-2.82,0-.08,0-.18,0-.29s0-.23.03-.34.04-.22.07-.31c.03-.09.08-.16.14-.21.09-.07.21-.11.36-.13l.51-.05c.17-.02.33-.04.45-.08.16-.05.25-.17.25-.34,0-.11-.06-.22-.17-.32l-.03-.02h-.03c-.45,0-.85,0-1.2.03-.69.04-1.47.05-2.18-.03-.36-.04-.72-.05-1.09-.05-.12,0-.25,0-.37.03-.1.02-.26.08-.26.35,0,.2.11.32.32.36.17.03.35.05.56.08.2.02.38.08.56.15.15.07.24.19.28.4.04.2.06.43.06.69v4.61c0,.3,0,.66.03,1.07s.03.83.03,1.23-.02.76-.06,1.09c-.04.32-.12.53-.22.64-.14.13-.28.2-.44.22-.17.02-.34.04-.49.05-.17.01-.31.04-.42.08-.1.04-.22.13-.22.37,0,.08.03.16.08.23.06.08.14.12.23.12.35,0,.65-.01.92-.03.26-.02.5-.04.74-.06s.48-.04.74-.06c.25-.02.55-.03.9-.03.69,0,1.41.05,2.13.14.74.09,1.47.14,2.16.14.16,0,.24-.2.29-.38.06-.21.13-.48.21-.81s.2-.71.35-1.11c.14-.4.35-.82.61-1.23l.03-.04-.03-.07Z"/>
</svg>